<?xml version="1.0" encoding="UTF-8" standalone="no"?>
<!-- Created with Inkscape (http://www.inkscape.org/) -->

<svg
   xmlns:dc="http://purl.org/dc/elements/1.1/"
   xmlns:cc="http://creativecommons.org/ns#"
   xmlns:rdf="http://www.w3.org/1999/02/22-rdf-syntax-ns#"
   xmlns:svg="http://www.w3.org/2000/svg"
   xmlns="http://www.w3.org/2000/svg"
   xmlns:sodipodi="http://sodipodi.sourceforge.net/DTD/sodipodi-0.dtd"
   xmlns:inkscape="http://www.inkscape.org/namespaces/inkscape"
   width="297mm"
   height="210mm"
   viewBox="0 0 297 210"
   version="1.1"
   id="svg8"
   inkscape:version="0.92.4 (5da689c313, 2019-01-14)"
   sodipodi:docname="Logo.svg">
  <defs
     id="defs2" />
  <sodipodi:namedview
     id="base"
     pagecolor="#ffffff"
     bordercolor="#666666"
     borderopacity="1.0"
     inkscape:pageopacity="0.0"
     inkscape:pageshadow="2"
     inkscape:zoom="0.7"
     inkscape:cx="-278.21907"
     inkscape:cy="660.18018"
     inkscape:document-units="mm"
     inkscape:current-layer="layer1"
     showgrid="false"
     inkscape:window-width="2560"
     inkscape:window-height="1017"
     inkscape:window-x="1272"
     inkscape:window-y="-8"
     inkscape:window-maximized="1" />
  <metadata
     id="metadata5">
    <rdf:RDF>
      <cc:Work
         rdf:about="">
        <dc:format>image/svg+xml</dc:format>
        <dc:type
           rdf:resource="http://purl.org/dc/dcmitype/StillImage" />
        <dc:title></dc:title>
      </cc:Work>
    </rdf:RDF>
  </metadata>
  <g
     inkscape:label="Layer 1"
     inkscape:groupmode="layer"
     id="layer1"
     transform="translate(0,-87)">
    <path
       style="opacity:0.98999999;fill:#ffffff;fill-opacity:1;stroke:#000000;stroke-width:0.56699997;stroke-linejoin:round;stroke-miterlimit:4;stroke-dasharray:none;stroke-dashoffset:0;stroke-opacity:1"
       d="m 101.978,176.41541 c -2.221431,2.22144 3.82479,5.13172 5.61266,6.61842 7.2749,6.04943 12.10609,6.18306 19.51048,0 1.78618,-1.49156 7.29956,-4.39698 5.07812,-6.61842 -0.88014,-0.88014 -3.73414,-1.20271 -3.73414,-1.20271 -2.94894,3.1369 -7.06084,4.91907 -11.36623,4.92632 -4.3097,-0.004 -8.42673,-1.78628 -11.37863,-4.92632 0,0 -2.84491,0.32537 -3.72226,1.20271 z"
       id="rect4923"
       inkscape:connector-curvature="0"
       sodipodi:nodetypes="cssccccc" />
    <circle
       style="opacity:0.98999999;fill:#ffffff;fill-opacity:1;stroke:#000000;stroke-width:0.5;stroke-linejoin:round;stroke-miterlimit:4;stroke-dasharray:none;stroke-dashoffset:0;stroke-opacity:1"
       id="path4751"
       cx="117.07812"
       cy="162.62947"
       r="13.79613" />
    <circle
       style="opacity:0.98999999;fill:none;fill-opacity:1;stroke:#000000;stroke-width:0.5;stroke-linejoin:round;stroke-miterlimit:4;stroke-dasharray:none;stroke-dashoffset:0;stroke-opacity:1"
       id="path4753"
       cx="117.07812"
       cy="162.62947"
       r="4.4412203" />
    <circle
       style="opacity:0.98999999;fill:none;fill-opacity:1;stroke:#000000;stroke-width:0.66114193;stroke-linejoin:round;stroke-miterlimit:4;stroke-dasharray:none;stroke-dashoffset:0;stroke-opacity:0.50196081"
       id="path4753-1"
       cx="117.07812"
       cy="162.62947"
       r="5.8725543" />
    <circle
       style="opacity:0.98999999;fill:#020202;fill-opacity:1;stroke:#000000;stroke-width:0.16764472;stroke-linejoin:round;stroke-miterlimit:4;stroke-dasharray:none;stroke-dashoffset:0;stroke-opacity:1"
       id="path4753-4"
       cx="117.07812"
       cy="162.62947"
       r="1.4890944" />
    <path
       id="path4790-2"
       d="m 106.45529,136.24294 -0.31493,0.8335 c 1.28255,0.70671 2.25824,2.10025 2.68019,3.63993 0.42172,1.53987 0.28476,3.19506 -0.50872,4.4158 l 0.67203,0.59388 c 0.94189,-1.51767 1.04188,-3.4484 0.55966,-5.2096 -0.48234,-1.76127 -1.55259,-3.38477 -3.08823,-4.27351 z m -10.668584,2.86951 c -0.885527,1.53755 -1.001218,3.47686 -0.538239,5.24318 0.462911,1.76644 1.514969,3.38851 3.089478,4.23183 l 0.283551,-0.84789 c -1.297537,-0.66046 -2.242521,-2.0278 -2.646963,-3.57227 -0.404717,-1.54443 -0.258226,-3.23852 0.499131,-4.49187 z m 9.678434,-1.15095 -0.37094,0.84848 c 0.84258,0.46357 1.49992,1.39107 1.78392,2.42123 0.28399,1.03012 0.18939,2.13228 -0.32716,2.92684 l 0.7271,0.57708 c 0.68043,-1.0962 0.74746,-2.47356 0.40279,-3.72525 -0.34468,-1.25161 -1.10632,-2.40747 -2.21571,-3.04838 z m -7.963592,2.14471 c -0.640282,1.10978 -0.720075,2.49105 -0.392727,3.74737 0.327303,1.25629 1.072649,2.41798 2.21003,3.02716 l 0.340557,-0.8652 c -0.844689,-0.42996 -1.475091,-1.33561 -1.744229,-2.36978 -0.269093,-1.03402 -0.166139,-2.16752 0.331778,-2.99016 z m 6.972922,-0.4281 -0.42894,0.86405 c 0.40034,0.22028 0.73786,0.6877 0.88162,1.2123 0.14369,0.52466 0.0883,1.0764 -0.15509,1.45082 l 0.78745,0.56087 c 0.42152,-0.67902 0.45486,-1.50832 0.25057,-2.25448 -0.2043,-0.74623 -0.65307,-1.43925 -1.33561,-1.83356 z m -5.25667,1.41939 c -0.393962,0.68268 -0.436037,1.50742 -0.239883,2.25575 0.196163,0.74831 0.641599,1.44922 1.346163,1.82661 l 0.39951,-0.87891 c -0.398,-0.20251 -0.72194,-0.65277 -0.859721,-1.1789 -0.137879,-0.52617 -0.07925,-1.09982 0.157351,-1.4907 z"
       style="color:#000000;font-style:normal;font-variant:normal;font-weight:normal;font-stretch:normal;font-size:medium;line-height:normal;font-family:sans-serif;text-indent:0;text-align:start;text-decoration:none;text-decoration-line:none;text-decoration-style:solid;text-decoration-color:#000000;letter-spacing:normal;word-spacing:normal;text-transform:none;writing-mode:lr-tb;direction:ltr;baseline-shift:baseline;text-anchor:start;white-space:normal;clip-rule:nonzero;display:inline;overflow:visible;visibility:visible;opacity:1;isolation:auto;mix-blend-mode:normal;color-interpolation:sRGB;color-interpolation-filters:linearRGB;solid-color:#000000;solid-opacity:1;fill:#000000;fill-opacity:0.25098041;fill-rule:nonzero;stroke:none;stroke-width:1.02342021;stroke-linecap:round;stroke-linejoin:round;stroke-miterlimit:4;stroke-dasharray:none;stroke-dashoffset:0;stroke-opacity:1;color-rendering:auto;image-rendering:auto;shape-rendering:auto;text-rendering:auto;enable-background:accumulate"
       inkscape:connector-curvature="0"
       sodipodi:nodetypes="cccccccccccccccccccccccccccccccccccccccccc" />
    <path
       style="opacity:0.98999999;fill:none;fill-opacity:1;stroke:#000000;stroke-width:0.5;stroke-linejoin:round;stroke-miterlimit:4;stroke-dasharray:none;stroke-dashoffset:0;stroke-opacity:1"
       d="m 102.95097,141.83526 c -0.58294,-0.0451 -1.26566,0.22778 -1.53737,0.6873 l 1.98075,7.71271 0.59531,5.44049 a 14.956283,14.956283 0 0 1 2.52285,-3.4463 l -1.04955,-2.52543 -1.98127,-7.7127 c -0.15318,-0.0906 -0.33641,-0.14102 -0.53072,-0.15607 z"
       id="rect4864"
       inkscape:connector-curvature="0" />
    <circle
       style="opacity:0.98999999;fill:#ffffff;fill-opacity:1;stroke:#000000;stroke-width:0.02739962;stroke-linejoin:round;stroke-miterlimit:4;stroke-dasharray:none;stroke-dashoffset:0;stroke-opacity:1"
       id="path4751-2-9"
       cx="50.580757"
       cy="161.16026"
       r="0.75601763" />
    <path
       style="opacity:0.98999999;fill:none;fill-opacity:1;stroke:#000000;stroke-width:0.5;stroke-linejoin:round;stroke-miterlimit:4;stroke-dasharray:none;stroke-dashoffset:0;stroke-opacity:1"
       d="m 131.24449,141.83526 c 0.58294,-0.0451 1.26566,0.22778 1.53737,0.6873 l -1.98075,7.71271 -0.59531,5.44049 a 14.956283,14.956283 0 0 0 -2.52285,-3.4463 l 1.04955,-2.52543 1.98127,-7.7127 c 0.15318,-0.0906 0.33641,-0.14102 0.53072,-0.15607 z"
       id="rect4864-3"
       inkscape:connector-curvature="0" />
    <path
       id="path4790-2-5"
       d="m 127.55198,136.24294 0.31493,0.8335 c -1.28255,0.70671 -2.25824,2.10025 -2.68019,3.63993 -0.42172,1.53987 -0.28476,3.19506 0.50872,4.4158 l -0.67203,0.59388 c -0.94189,-1.51767 -1.04188,-3.4484 -0.55966,-5.2096 0.48234,-1.76127 1.55259,-3.38477 3.08823,-4.27351 z m 10.66858,2.86951 c 0.88553,1.53755 1.00122,3.47686 0.53824,5.24318 -0.46291,1.76644 -1.51497,3.38851 -3.08948,4.23183 l -0.28355,-0.84789 c 1.29754,-0.66046 2.24252,-2.0278 2.64696,-3.57227 0.40472,-1.54443 0.25823,-3.23852 -0.49913,-4.49187 z m -9.67843,-1.15095 0.37094,0.84848 c -0.84258,0.46357 -1.49992,1.39107 -1.78392,2.42123 -0.28399,1.03012 -0.18939,2.13228 0.32716,2.92684 l -0.7271,0.57708 c -0.68043,-1.0962 -0.74746,-2.47356 -0.40279,-3.72525 0.34468,-1.25161 1.10632,-2.40747 2.21571,-3.04838 z m 7.96359,2.14471 c 0.64028,1.10978 0.72007,2.49105 0.39273,3.74737 -0.32731,1.25629 -1.07265,2.41798 -2.21003,3.02716 l -0.34056,-0.8652 c 0.84469,-0.42996 1.47509,-1.33561 1.74423,-2.36978 0.26909,-1.03402 0.16614,-2.16752 -0.33178,-2.99016 z m -6.97292,-0.4281 0.42894,0.86405 c -0.40034,0.22028 -0.73786,0.6877 -0.88162,1.2123 -0.14369,0.52466 -0.0883,1.0764 0.15509,1.45082 l -0.78745,0.56087 c -0.42152,-0.67902 -0.45486,-1.50832 -0.25057,-2.25448 0.2043,-0.74623 0.65307,-1.43925 1.33561,-1.83356 z m 5.25667,1.41939 c 0.39396,0.68268 0.43603,1.50742 0.23988,2.25575 -0.19616,0.74831 -0.6416,1.44922 -1.34616,1.82661 l -0.39951,-0.87891 c 0.398,-0.20251 0.72194,-0.65277 0.85972,-1.1789 0.13788,-0.52617 0.0793,-1.09982 -0.15735,-1.4907 z"
       style="color:#000000;font-style:normal;font-variant:normal;font-weight:normal;font-stretch:normal;font-size:medium;line-height:normal;font-family:sans-serif;text-indent:0;text-align:start;text-decoration:none;text-decoration-line:none;text-decoration-style:solid;text-decoration-color:#000000;letter-spacing:normal;word-spacing:normal;text-transform:none;writing-mode:lr-tb;direction:ltr;baseline-shift:baseline;text-anchor:start;white-space:normal;clip-rule:nonzero;display:inline;overflow:visible;visibility:visible;opacity:1;isolation:auto;mix-blend-mode:normal;color-interpolation:sRGB;color-interpolation-filters:linearRGB;solid-color:#000000;solid-opacity:1;fill:#000000;fill-opacity:0.25098041;fill-rule:nonzero;stroke:none;stroke-width:1.02342021;stroke-linecap:round;stroke-linejoin:round;stroke-miterlimit:4;stroke-dasharray:none;stroke-dashoffset:0;stroke-opacity:1;color-rendering:auto;image-rendering:auto;shape-rendering:auto;text-rendering:auto;enable-background:accumulate"
       inkscape:connector-curvature="0"
       sodipodi:nodetypes="cccccccccccccccccccccccccccccccccccccccccc" />
  </g>
</svg>
